<?xml version="1.0" encoding="utf-8" ?><svg xmlns="http://www.w3.org/2000/svg" xmlns:xlink="http://www.w3.org/1999/xlink" width="376" height="34" viewBox="0 0 376 34"><path fill="#3D220E" d="M288.245 6.88047L288.767 6.4638L289.22 6.62157C289.38 7.53871 286.825 10.5075 286.16 11.7227C286.205 11.9159 286.229 12.1425 286.382 12.2582C289.112 11.2868 291.239 10.938 294.108 10.9962C297.4 11.1517 301.207 12.1879 303.786 14.3075C306.753 16.5901 308.949 19.8084 307.268 23.6393C306.75 23.4354 306.386 23.177 305.967 22.8129C306.415 19.8746 305.831 18.8085 303.467 17.0021C299.695 15.8275 298.481 16.0522 295.05 17.4467C294.322 17.9513 293.462 18.4741 293.273 19.3427C293.51 20.0797 294.055 20.2991 294.387 20.8924C295.644 23.1374 295.829 25.0292 295.516 27.4705L295.225 27.8613C293.881 27.136 292.216 22.5711 288.004 21.7344C287.539 21.6435 287.103 21.4972 286.657 21.341L286.17 21.7092L285.781 21.8274C285.563 21.6681 285.348 21.5046 285.137 21.3372C283.935 21.1936 282.78 21.554 281.693 22.0464C281.081 22.0178 280.703 21.8872 280.219 22.3317C280.122 22.4202 280.045 22.5395 279.976 22.6506C279.218 22.5632 278.287 22.0725 277.518 21.8695C275.236 21.2668 273.061 21.1004 270.711 21.1134C270.973 20.6754 271.242 20.328 271.609 19.9724L270.957 19.2126C271.549 18.9883 272.345 18.2866 272.865 17.8713C274.207 16.8179 276.201 13.4126 278.205 11.6136C280.144 9.86268 281.878 8.92463 284.259 7.94001C285.116 7.58073 287.203 7.16101 288.245 6.88047ZM277.423 19.1872C284.5 19.7206 286.679 16.8002 292.025 15.5724L292.089 15.2351C288.055 13.3058 282.416 18.0613 280.52 17.5241C280.183 16.5154 280.692 15.7934 281.153 14.7355L280.043 14.7919C279.252 15.7763 277.336 17.9585 277.423 19.1872Z"/><path fill="#946E3A" d="M288.245 6.88047L288.767 6.4638L289.22 6.62157C289.38 7.53871 286.825 10.5075 286.16 11.7227C286.205 11.9159 286.229 12.1425 286.382 12.2582C287.588 13.518 288.802 14.0624 290.554 14.1009C291.23 14.1122 291.907 14.1087 292.583 14.0903L292.968 14.5187L292.869 14.9288C292.675 15.0181 292.281 15.2197 292.089 15.2351C288.055 13.3058 282.416 18.0613 280.52 17.5241C280.183 16.5154 280.692 15.7934 281.153 14.7355L280.043 14.7919C279.252 15.7763 277.336 17.9585 277.423 19.1872C278.895 20.6491 279.64 21.4762 281.693 22.0464C281.081 22.0178 280.703 21.8872 280.219 22.3317C280.122 22.4202 280.045 22.5395 279.976 22.6506C279.218 22.5632 278.287 22.0725 277.518 21.8695C275.236 21.2668 273.061 21.1004 270.711 21.1134C270.973 20.6754 271.242 20.328 271.609 19.9724L270.957 19.2126C271.549 18.9883 272.345 18.2866 272.865 17.8713C274.207 16.8179 276.201 13.4126 278.205 11.6136C280.144 9.86268 281.878 8.92463 284.259 7.94001C285.116 7.58073 287.203 7.16101 288.245 6.88047Z"/><path fill="#3D220E" d="M288.245 6.88047L288.767 6.4638L289.22 6.62157C289.38 7.53871 286.825 10.5075 286.16 11.7227C286.205 11.9159 286.229 12.1425 286.382 12.2582C287.588 13.518 288.802 14.0624 290.554 14.1009C291.23 14.1122 291.907 14.1087 292.583 14.0903L292.968 14.5187L292.869 14.9288C292.675 15.0181 292.281 15.2197 292.089 15.2351C288.055 13.3058 282.416 18.0613 280.52 17.5241C280.183 16.5154 280.692 15.7934 281.153 14.7355C280.215 14.1099 280.301 14.3576 279.908 13.3981C280.525 13.2442 281.04 13.0171 281.566 12.8376C282.695 12.4522 288.009 7.57729 288.245 6.88047Z"/><path fill="#3D220E" d="M277.775 14.9012C278.762 15.2623 279.048 15.1431 280.043 14.7919C279.252 15.7763 277.336 17.9585 277.423 19.1872C278.895 20.6491 279.64 21.4762 281.693 22.0464C281.081 22.0178 280.703 21.8872 280.219 22.3317C280.122 22.4202 280.045 22.5395 279.976 22.6506C279.218 22.5632 278.287 22.0725 277.518 21.8695C275.236 21.2668 273.061 21.1004 270.711 21.1134C270.973 20.6754 271.242 20.328 271.609 19.9724L270.957 19.2126C271.549 18.9883 272.345 18.2866 272.865 17.8713C273.492 17.8579 274.901 17.6579 275.208 18.2977C276.858 17.0504 276.86 15.5545 277.775 14.9012Z"/><path fill="#B28F4E" d="M272.865 17.8713C273.492 17.8579 274.901 17.6579 275.208 18.2977C273.77 19.1144 273.205 19.4274 271.609 19.9724L270.957 19.2126C271.549 18.9883 272.345 18.2866 272.865 17.8713Z"/><path fill="#3D220E" d="M278.205 11.6136C280.144 9.86268 281.878 8.92463 284.259 7.94001C283.267 11.1406 282.629 12.0052 279.161 12.2216C278.842 12.0415 278.478 11.8549 278.205 11.6136Z"/><path fill="#332013" d="M277.775 14.9012C278.197 14.5291 279.391 13.7528 279.908 13.3981C280.301 14.3576 280.215 14.1099 281.153 14.7355L280.043 14.7919C279.048 15.1431 278.762 15.2623 277.775 14.9012Z"/><path fill="#4A2D12" d="M292.025 15.5724C292.148 17.4112 290.759 16.786 289.963 18.3798C290.021 18.829 290.037 18.9391 290.354 19.2808C289.457 19.5265 288.111 20.9331 288.004 21.7344C287.539 21.6435 287.103 21.4972 286.657 21.341L286.17 21.7092L285.781 21.8274C285.563 21.6681 285.348 21.5046 285.137 21.3372C283.935 21.1936 282.78 21.554 281.693 22.0464C279.64 21.4762 278.895 20.6491 277.423 19.1872C284.5 19.7206 286.679 16.8002 292.025 15.5724Z"/><path fill="#4A2D12" d="M292.431 17.2825C292.298 18.4033 291.998 18.1671 292.34 18.8774C292.88 18.0445 293.991 17.1423 295.05 17.4467C294.322 17.9513 293.462 18.4741 293.273 19.3427C293.51 20.0797 294.055 20.2991 294.387 20.8924C295.644 23.1374 295.829 25.0292 295.516 27.4705L295.225 27.8613C293.881 27.136 292.216 22.5711 288.004 21.7344C288.111 20.9331 289.457 19.5265 290.354 19.2808C291.803 18.6012 291.591 17.7984 292.431 17.2825Z"/><path fill="#684622" d="M286.382 12.2582C289.112 11.2868 291.239 10.938 294.108 10.9962L292.759 11.461C295.318 12.4272 294.98 13.5592 295.808 14.0194C294.56 16.35 293.44 14.8674 292.431 17.2825C291.591 17.7984 291.803 18.6012 290.354 19.2808C290.037 18.9391 290.021 18.829 289.963 18.3798C290.759 16.786 292.148 17.4112 292.025 15.5724L292.089 15.2351C292.281 15.2197 292.675 15.0181 292.869 14.9288L292.968 14.5187L292.583 14.0903C291.907 14.1087 291.23 14.1122 290.554 14.1009C288.802 14.0624 287.588 13.518 286.382 12.2582Z"/><path fill="#B28F4E" d="M286.382 12.2582C289.112 11.2868 291.239 10.938 294.108 10.9962L292.759 11.461C290.853 11.9487 289.611 11.3204 288.644 12.6313L288.795 12.9483C290.228 12.8552 291.503 12.8903 292.866 13.3566L293.23 13.7206C292.988 13.9577 292.917 14.0444 292.583 14.0903C291.907 14.1087 291.23 14.1122 290.554 14.1009C288.802 14.0624 287.588 13.518 286.382 12.2582Z"/><path fill="#090502" d="M303.786 14.3075C306.753 16.5901 308.949 19.8084 307.268 23.6393C306.75 23.4354 306.386 23.177 305.967 22.8129C306.415 19.8746 305.831 18.8085 303.467 17.0021C303.513 16.8497 303.802 16.291 303.889 16.114C304.251 16.1261 304.484 16.112 304.838 16.083C304.649 15.6201 303.246 15.1614 302.491 14.693L303.024 14.4693L303.786 14.3075Z"/><path fill="#E7C66E" d="M294.108 10.9962C297.4 11.1517 301.207 12.1879 303.786 14.3075L303.024 14.4693C302.963 14.4193 302.829 14.3235 302.738 14.3002C300.877 13.8179 299.011 13.3576 297.079 13.3323C296.558 13.6137 296.134 13.8427 295.808 14.0194C294.98 13.5592 295.318 12.4272 292.759 11.461L294.108 10.9962Z"/><path fill="#3D220E" d="M140.103 11.0054C141.501 9.60227 142.26 9.12009 144.237 8.85769L144.707 9.01408C144.47 9.59686 144.272 9.71415 143.627 9.98526C143.274 10.1302 142.919 10.2688 142.56 10.4009C140.04 13.8142 141.319 13.59 141.718 16.9964C141.927 17.0939 142.439 17.2411 142.557 17.1341C144.627 15.2594 145.633 13.571 148.57 13.0779C148.243 14.9244 146.729 15.4294 146.664 16.5783C146.949 16.3243 148.051 15.7791 148.444 15.5718C148.955 16.1033 148.858 15.8682 148.862 16.6162C147.892 18.0262 147.431 17.9895 147.256 19.466C146.602 25.8469 149.402 28.6093 144.569 33.2144C145.461 30.1081 146.08 27.5934 142.07 26.3412C138.282 25.1582 131.189 26.8511 128.208 23.6199C126.932 22.3142 126.264 20.9797 125.669 19.2779L125.63 18.8537C125.683 18.1948 126.029 17.9195 126.484 17.4579C127.866 17.1376 128.147 18.0137 129.544 18.7855L130.215 18.1607L131.943 19.7057L133.5 19.9838C134.725 19.9969 135.132 19.7637 136.202 19.1986C138.286 16.6885 138.168 13.4025 140.103 11.0054Z"/><path fill="#B28F4E" d="M140.103 11.0054C141.501 9.60227 142.26 9.12009 144.237 8.85769L144.707 9.01408C144.47 9.59686 144.272 9.71415 143.627 9.98526C143.274 10.1302 142.919 10.2688 142.56 10.4009C140.04 13.8142 141.319 13.59 141.718 16.9964C141.927 17.0939 142.439 17.2411 142.557 17.1341C144.627 15.2594 145.633 13.571 148.57 13.0779C148.243 14.9244 146.729 15.4294 146.664 16.5783C146.359 17.324 145.605 17.6087 144.891 17.9768C143.916 20.9138 143.877 20.4214 143.865 23.7499C141.932 23.2479 140.559 23.0858 138.568 22.842C137.672 22.9857 137.014 23.078 136.146 22.7479C136.902 21.7116 138.236 21.1581 137.945 19.6711C137.163 19.1139 137.254 19.2712 136.202 19.1986C138.286 16.6885 138.168 13.4025 140.103 11.0054Z"/><path fill="#684622" d="M140.103 11.0054C141.179 13.5673 139.108 17.5656 140.66 19.8255C139.833 20.1566 139.103 20.5984 138.733 21.4579C138.635 21.6857 138.574 21.8929 138.641 22.1401L138.568 22.842C137.672 22.9857 137.014 23.078 136.146 22.7479C136.902 21.7116 138.236 21.1581 137.945 19.6711C137.163 19.1139 137.254 19.2712 136.202 19.1986C138.286 16.6885 138.168 13.4025 140.103 11.0054Z"/><path fill="#4A2D12" d="M141.718 16.9964C141.927 17.0939 142.439 17.2411 142.557 17.1341C144.627 15.2594 145.633 13.571 148.57 13.0779C148.243 14.9244 146.729 15.4294 146.664 16.5783C146.359 17.324 145.605 17.6087 144.891 17.9768C144.039 18.0475 144.076 18.926 143.158 18.9968C143.051 18.4636 142.97 18.114 142.802 17.5969L142.392 17.5742L141.5 18.5411L141.213 18.2605C141.288 17.4364 141.204 17.7199 141.718 16.9964Z"/><path fill="#5D3618" d="M140.66 19.8255C141.557 20.0295 142.498 19.6837 143.245 20.072C143.324 20.6551 143.274 20.8218 143.054 21.3703C142.517 21.8898 141.914 21.9897 141.193 21.9782C140.291 21.9638 139.531 21.9581 138.641 22.1401C138.574 21.8929 138.635 21.6857 138.733 21.4579C139.103 20.5984 139.833 20.1566 140.66 19.8255Z"/><path fill="#E7C66E" d="M125.63 18.8537C125.683 18.1948 126.029 17.9195 126.484 17.4579C127.866 17.1376 128.147 18.0137 129.544 18.7855L130.215 18.1607L131.943 19.7057C130.865 20.1702 130.737 21.0233 129.948 21.7054L129.13 21.072C128.458 21.7089 128.231 22.6988 128.208 23.6057L128.208 23.6199C126.932 22.3142 126.264 20.9797 125.669 19.2779L125.63 18.8537Z"/><path fill="#4A2D12" d="M125.669 19.2779C126.516 19.6183 128.686 20.3214 129.13 21.072C128.458 21.7089 128.231 22.6988 128.208 23.6057L128.208 23.6199C126.932 22.3142 126.264 20.9797 125.669 19.2779Z"/><path fill="#4A2D12" d="M133.5 19.9838C134.725 19.9969 135.132 19.7637 136.202 19.1986C137.254 19.2712 137.163 19.1139 137.945 19.6711C138.236 21.1581 136.902 21.7116 136.146 22.7479C135.073 22.9036 132.814 22.9528 131.895 22.3089C131.37 21.8766 130.599 21.8204 129.948 21.7054C130.737 21.0233 130.865 20.1702 131.943 19.7057L133.5 19.9838Z"/><defs><linearGradient id="gradient_0" gradientUnits="userSpaceOnUse" x1="38.318928" y1="26.945484" x2="38.610916" y2="19.418167"><stop offset="0" stop-color="#533A20" stop-opacity="0.98039216"/><stop offset="1" stop-color="#422B26"/></linearGradient></defs><path fill="url(#gradient_0)" d="M64.1863 19.1905C64.1061 19.5713 64.1978 19.8184 64.2955 20.1881L64.7455 20.3993C65.8009 20.2259 67.0788 18.9752 67.9393 18.2531C67.9462 21.3686 67.7429 22.8845 69.938 25.4406C70.521 26.1194 71.2818 26.8153 71.7595 27.5513C69.1067 26.4565 68.0905 25.9081 66.1334 23.6773C53.4646 23.4788 40.7936 23.4495 28.124 23.5895C22.6295 23.6021 16.3297 23.8009 10.8985 23.5681C8.58383 25.8321 8.12768 26.4551 5.1267 27.7265C7.26732 25.1401 7.34409 24.9816 8.92559 22.0762C9.97311 21.4192 10.9132 20.8584 12.1466 20.6533C14.9733 20.1832 18.2149 20.4715 21.1009 20.493C27.7617 20.5426 34.4321 20.7846 41.09 20.6079C46.3121 20.1672 60.5461 21.7821 63.6369 19.2373L64.1863 19.1905Z"/><defs><linearGradient id="gradient_1" gradientUnits="userSpaceOnUse" x1="341.112" y1="25.496674" x2="341.16183" y2="19.762321"><stop offset="0" stop-color="#49341F" stop-opacity="0.98039216"/><stop offset="1" stop-color="#442C26"/></linearGradient></defs><path fill="url(#gradient_1)" d="M369.172 19.2474C369.178 24.9113 370.415 23.8606 373.288 27.7688C370.465 26.6136 369.208 25.7354 367.033 23.45C349.022 24.0402 330.538 23.4853 312.492 23.553C312.168 23.5542 311.838 23.7453 311.588 23.9305C311.463 22.8498 311.923 21.7533 312.253 20.7388C319.489 20.3565 326.764 20.594 334.006 20.6368C339.701 20.6704 345.403 20.5007 351.101 20.5059C355.475 20.51 360.311 21.1432 364.602 20.5743C366.177 20.5453 367.716 19.829 369.172 19.2474Z"/><path fill="#4A2D12" d="M247.184 7.78428C248.845 8.8284 250.845 10.0024 252.258 11.3192L254.393 12.659L255.409 13.225L254.221 14.4339L253.524 14.6837C253.418 14.9773 253.271 15.3328 253.245 15.6383C252.348 19.5943 251.787 23.8399 247.224 25.1263C243.522 26.1448 235.373 24.8887 233.557 28.0712C232.884 29.2519 232.741 30.8311 232.684 32.1698C231.92 31.8922 231.426 30.9529 231.101 30.2559C230.764 29.5315 230.482 28.8212 230.423 28.0176C234.054 24.0594 233.363 23.5818 239.092 22.7971C240.124 21.6508 241.452 20.7757 242.69 19.8669L243.137 19.9563L244.91 20.0397C245.598 19.5747 245.922 19.3013 246.771 19.2588C247.826 18.084 248.307 17.1857 249.089 15.8384C249.029 15.2562 248.959 14.675 248.879 14.095C248.57 11.8259 247.373 9.77228 245.551 8.38512C245.96 8.30639 246.764 7.95422 247.184 7.78428Z"/><path fill="#B28F4E" d="M247.184 7.78428C248.845 8.8284 250.845 10.0024 252.258 11.3192L254.393 12.659C253.953 13.4176 253.819 14.0664 252.791 13.9499C250.585 14.1256 250.767 15.1964 250.041 17.2517C249.328 18.1749 248.049 19.5012 246.771 19.2588C247.826 18.084 248.307 17.1857 249.089 15.8384C249.029 15.2562 248.959 14.675 248.879 14.095C248.57 11.8259 247.373 9.77228 245.551 8.38512C245.96 8.30639 246.764 7.95422 247.184 7.78428Z"/><path fill="#E7C66E" d="M252.258 11.3192L254.393 12.659C253.953 13.4176 253.819 14.0664 252.791 13.9499C252.611 13.8607 252.303 13.5306 252.145 13.3744C251.877 12.5092 252.014 12.1709 252.258 11.3192Z"/><path fill="#684622" d="M254.393 12.659L255.409 13.225L254.221 14.4339L253.524 14.6837C253.418 14.9773 253.271 15.3328 253.245 15.6383C252.348 19.5943 251.787 23.8399 247.224 25.1263L247.173 24.7776C247.575 24.5084 250.012 22.9094 250.279 22.5907C251.106 21.6026 252.361 17.8468 252.379 16.4446C252.387 15.7682 252.296 15.7208 251.912 15.3494L251.319 15.4602L251.218 16.3791C250.946 16.7593 250.449 17.0105 250.041 17.2517C250.767 15.1964 250.585 14.1256 252.791 13.9499C253.819 14.0664 253.953 13.4176 254.393 12.659Z"/><path fill="#EADBAB" d="M243.137 19.9563L244.91 20.0397C245.145 20.6049 245.272 21.0422 245.258 21.6576C244.881 22.2528 244.793 22.2936 244.131 22.5457C243.452 22.4055 243.316 22.3019 242.803 21.8297C242.611 20.9832 242.81 20.7334 243.137 19.9563Z"/><path fill="#3D220E" d="M88.0535 6.44738C91.6101 7.13932 93.6803 7.57157 96.845 9.43414C98.4631 10.473 99.9653 11.4519 101.227 12.9435C101.94 13.5846 102.165 13.8907 102.728 14.66C103.429 15.6226 104.215 16.762 104.946 17.6818C102.971 17.8092 102.475 18.1231 100.857 19.2712L100.837 19.0442C100.845 18.3745 100.284 17.9262 99.7796 17.2861C99.1854 16.1911 98.9524 15.2251 97.6569 15.1289C97.2984 16.1597 98.2879 16.8378 97.7764 17.7461C96.9966 17.8663 94.2956 16.4257 93.295 16.038C90.9131 15.115 89.8324 14.9673 87.3531 14.8607L88.4088 14.6324L88.4015 14.3286C88 14.0698 87.6013 13.8064 87.2057 13.5385L87.8274 13.268L87.3137 13.3978C87.9619 13.0589 89.011 13.0921 89.767 13.0615L89.7169 12.6887L90.2744 12.1032C90.8507 12.2375 91.138 12.3144 91.7299 12.3134C92.9618 10.9762 89.1526 7.73887 88.0535 6.44738Z"/><path fill="#9B7445" d="M88.0535 6.44738C91.6101 7.13932 93.6803 7.57157 96.845 9.43414C98.4631 10.473 99.9653 11.4519 101.227 12.9435C99.963 13.2644 98.5042 12.4357 97.217 11.9205C93.9516 11.5386 94.1901 13.9232 89.767 13.0615L89.7169 12.6887L90.2744 12.1032C90.8507 12.2375 91.138 12.3144 91.7299 12.3134C92.9618 10.9762 89.1526 7.73887 88.0535 6.44738Z"/><path fill="#E7C66E" d="M96.845 9.43414C98.4631 10.473 99.9653 11.4519 101.227 12.9435C99.963 13.2644 98.5042 12.4357 97.217 11.9205L95.6982 11.6346L95.4919 11.2744C95.951 10.667 96.4021 10.0535 96.845 9.43414Z"/><path fill="#E7C66E" d="M99.7796 17.2861C100.045 16.6326 99.9433 16.8279 100.6 16.3738C100.703 15.8505 100.91 15.1596 100.668 14.7005L100.652 14.6712C101.269 15.0773 102.071 14.829 102.728 14.66C103.429 15.6226 104.215 16.762 104.946 17.6818C102.971 17.8092 102.475 18.1231 100.857 19.2712L100.837 19.0442C100.845 18.3745 100.284 17.9262 99.7796 17.2861Z"/><path fill="#B28F4E" d="M231.708 8.65725C236.347 8.82494 237.564 9.64835 239.499 13.9056C240.015 15.3366 240.425 16.5435 240.849 18.0095C241.186 18.3559 242.385 19.6344 242.69 19.8669C241.452 20.7757 240.124 21.6508 239.092 22.7971C233.363 23.5818 234.054 24.0594 230.423 28.0176C230.638 27.2733 230.767 26.5532 230.864 25.7852C230.913 24.6223 230.945 23.4913 231.258 22.3613L231.113 20.9653C231.116 20.3176 231.77 19.3053 232.107 18.5165C232.085 17.7485 232.067 17.5743 231.571 16.9924L231.908 13.9656C233.339 14.7172 233.879 15.2973 234.703 16.6916C235.83 17.3234 236.16 17.5191 237.433 17.701C235.448 15.1073 238.008 13.8266 236.249 11.6148C234.929 9.95465 233.39 9.72031 231.708 8.65725Z"/><path fill="#4A2D12" d="M231.908 13.9656C233.339 14.7172 233.879 15.2973 234.703 16.6916C235.83 17.3234 236.16 17.5191 237.433 17.701C237.232 20.8795 238.833 20.1998 238.827 21.7098C237.817 22.4735 234.816 22.3444 233.779 22.6319C233.264 22.7749 231.501 25.1628 230.864 25.7852C230.913 24.6223 230.945 23.4913 231.258 22.3613L231.113 20.9653C231.116 20.3176 231.77 19.3053 232.107 18.5165C232.085 17.7485 232.067 17.5743 231.571 16.9924L231.908 13.9656Z"/><path fill="#E7C66E" d="M231.908 13.9656C233.339 14.7172 233.879 15.2973 234.703 16.6916C233.655 16.7717 233.686 16.6063 232.963 17.1816C232.359 18.7584 235.896 22.5186 231.258 22.3613L231.113 20.9653C231.116 20.3176 231.77 19.3053 232.107 18.5165C232.085 17.7485 232.067 17.5743 231.571 16.9924L231.908 13.9656Z"/><path fill="#684622" d="M239.499 13.9056C240.015 15.3366 240.425 16.5435 240.849 18.0095C240.567 18.7361 240.203 19.8798 239.67 20.3834L238.93 19.6828C239.057 17.8452 239.315 15.7592 239.499 13.9056Z"/><path fill="#4A2D12" d="M131.182 7.83805C131.018 8.49197 130.808 8.63609 130.295 9.08002L131.161 9.83737C128.966 12.7587 128.856 14.869 130.215 18.1607L129.544 18.7855C128.147 18.0137 127.866 17.1376 126.484 17.4579C126.029 17.9195 125.683 18.1948 125.63 18.8537C125.392 17.6797 125.241 16.8204 124.787 15.6939C122.872 18.184 120.489 19.5707 117.462 20.3391C118.079 19.8045 118.97 19.1771 119.163 18.4148L118.691 17.9684L118.728 17.7673C118.254 17.2637 116.268 16.5824 115.215 15.6085C113.765 13.583 113.624 11.2713 113.269 8.83111C114.906 10.8302 115.775 12.1127 117.931 13.5918C119.564 13.7121 120.453 13.7306 122.049 13.3183C124.012 12.7321 126.246 10.9367 128.093 9.76032C128.981 9.13389 130.232 8.41792 131.182 7.83805Z"/><path fill="#9B7445" d="M113.269 8.83111C114.906 10.8302 115.775 12.1127 117.931 13.5918L117.955 13.9474L118.571 14.3675C117.881 14.2662 117.344 14.1732 116.639 14.1912C116.249 14.6296 116.342 14.4374 116.238 15.0148L115.215 15.6085C113.765 13.583 113.624 11.2713 113.269 8.83111Z"/><path fill="#3D220E" d="M116.238 15.0148C116.342 14.4374 116.249 14.6296 116.639 14.1912C117.344 14.1732 117.881 14.2662 118.571 14.3675C119.141 14.7022 119.646 14.9491 120.03 15.4968L119.453 15.7602C119.524 16.7981 119.789 17.2435 118.728 17.7673C118.254 17.2637 116.268 16.5824 115.215 15.6085L116.238 15.0148Z"/><path fill="#9C7E3E" d="M116.238 15.0148C116.342 14.4374 116.249 14.6296 116.639 14.1912C117.344 14.1732 117.881 14.2662 118.571 14.3675C119.141 14.7022 119.646 14.9491 120.03 15.4968L119.453 15.7602C118.08 15.9015 117.503 15.5527 116.238 15.0148Z"/><path fill="#B28F4E" d="M131.182 7.83805C131.018 8.49197 130.808 8.63609 130.295 9.08002C128.997 10.835 126.604 14.2503 124.819 15.2818L124.359 14.7435C124.622 13.61 126.875 13.2521 128.093 9.76032C128.981 9.13389 130.232 8.41792 131.182 7.83805Z"/><path fill="#B28F4E" d="M117.931 13.5918C119.564 13.7121 120.453 13.7306 122.049 13.3183C122.879 13.8761 122.811 13.655 123.112 14.4964C122.488 15.5228 121.119 15.9369 120.03 15.4968C119.646 14.9491 119.141 14.7022 118.571 14.3675L117.955 13.9474L117.931 13.5918Z"/><path fill="#E7C66E" d="M8.9597 19.6639C8.91445 19.5822 8.44666 17.6494 8.32911 17.2842C8.046 16.4047 7.11366 15.6146 7.08469 14.963L7.48593 14.7384C9.98889 15.1812 9.06594 19.0491 12.52 19.0652C21.8027 19.2081 31.513 18.9868 40.8185 19.152C44.3678 18.6246 51.1009 19.1818 54.7946 19.1347C57.042 19.1061 61.5865 18.9676 63.6369 19.2373C60.5461 21.7821 46.3121 20.1672 41.09 20.6079C34.4321 20.7846 27.7617 20.5426 21.1009 20.493C18.2149 20.4715 14.9733 20.1832 12.1466 20.6533C10.9132 20.8584 9.97311 21.4192 8.92559 22.0762C9.00199 21.29 8.95669 20.4556 8.9597 19.6639Z"/><path fill="#684622" d="M8.9597 19.6639C8.91445 19.5822 8.44666 17.6494 8.32911 17.2842C8.046 16.4047 7.11366 15.6146 7.08469 14.963L7.48593 14.7384C9.98889 15.1812 9.06594 19.0491 12.52 19.0652C10.6174 19.556 10.9749 20.5746 9.33025 19.0516C8.97259 19.325 9.06809 19.1915 8.9597 19.6639Z"/><path fill="#E7C66E" d="M307.921 13.9428C310.595 16.0694 311.071 16.7308 312.763 19.6277C316.248 18.7606 325.602 19.0205 329.65 19.0107L364.264 19.2274C364.381 19.6524 364.567 20.1382 364.602 20.5743C360.311 21.1432 355.475 20.51 351.101 20.5059C345.403 20.5007 339.701 20.6704 334.006 20.6368C326.764 20.594 319.489 20.3565 312.253 20.7388C311.672 20.9666 311.088 21.4761 310.584 21.8446L310.458 21.3311C310.734 17.9963 309.377 16.7639 307.921 13.9428Z"/><defs><linearGradient id="gradient_2" gradientUnits="userSpaceOnUse" x1="94.107597" y1="20.911533" x2="104.10735" y2="26.087976"><stop offset="0" stop-color="#3B1D0C"/><stop offset="1" stop-color="#684119"/></linearGradient></defs><path fill="url(#gradient_2)" d="M104.946 17.6818C107.272 19.2087 112.358 19.8849 114.966 19.3687C114.339 20.0451 113.268 19.8307 112.799 20.3651C112.963 20.9755 112.945 21.4592 112.862 22.0822C110.196 24.3769 110.655 27.6884 109.243 29.0056C108.504 28.2769 108.059 26.8655 108.06 25.842C108.06 25.6679 108.1 25.4919 108.163 25.3299C108.09 23.703 108.595 22.6456 109.28 21.224C105.674 21.1119 102.105 21.1012 98.7119 22.499C95.3813 23.8709 93.5826 26.2547 92.2454 29.4746L91.512 25.0387C92.565 23.4693 93.487 21.8505 95.3528 21.1746L95.977 20.5909C96.2182 20.0953 96.2368 19.6472 96.2971 19.1031C98.1477 19.294 99.0024 19.4378 100.837 19.0442L100.857 19.2712C102.475 18.1231 102.971 17.8092 104.946 17.6818Z"/><path fill="#4A2D12" d="M112.799 20.3651C112.963 20.9755 112.945 21.4592 112.862 22.0822C110.196 24.3769 110.655 27.6884 109.243 29.0056C108.504 28.2769 108.059 26.8655 108.06 25.842C108.06 25.6679 108.1 25.4919 108.163 25.3299C110.367 22.5109 108.645 22.1861 112.799 20.3651Z"/><path fill="#9C7E3E" d="M96.2971 19.1031C98.1477 19.294 99.0024 19.4378 100.837 19.0442L100.857 19.2712C99.2736 20.073 97.7936 20.914 95.977 20.5909C96.2182 20.0953 96.2368 19.6472 96.2971 19.1031Z"/><path fill="#4A2D12" d="M83.6862 11.2079C86.6006 10.9272 87.4932 11.0058 90.2744 12.1032L89.7169 12.6887L89.767 13.0615C89.011 13.0921 87.9619 13.0589 87.3137 13.3978L87.8274 13.268L87.2057 13.5385C87.6013 13.8064 88 14.0698 88.4015 14.3286L88.4088 14.6324L87.3531 14.8607C86.4156 15.1778 86.5926 14.9646 86.2381 15.6677C85.4699 16.5235 85.1983 17.0297 84.6272 18.0335C80.348 16.5939 79.108 15.2997 74.3763 17.132L72.7383 17.1556C72.085 17.6806 71.4389 18.2147 70.8004 18.7576C72.3636 13.8977 78.9383 11.3217 83.6862 11.2079Z"/><path fill="#946E3A" d="M70.8004 18.7576C72.3636 13.8977 78.9383 11.3217 83.6862 11.2079C83.1567 11.9031 82.3191 12.8312 82.282 13.7029C82.1936 13.6692 81.5039 13.4063 81.5039 13.4063C79.0192 14.2784 74.5588 15.316 72.7383 17.1556C72.085 17.6806 71.4389 18.2147 70.8004 18.7576Z"/><path fill="#E7C66E" d="M83.6862 11.2079C86.6006 10.9272 87.4932 11.0058 90.2744 12.1032L89.7169 12.6887C86.2716 11.6951 83.8034 14.0565 82.282 13.7029C82.3191 12.8312 83.1567 11.9031 83.6862 11.2079Z"/><path fill="#B28F4E" d="M86.2381 15.6677C87.2545 16.0718 92.3784 18.2431 92.9945 18.2786C93.9363 18.5232 95.3787 18.9449 96.2971 19.1031C96.2368 19.6472 96.2182 20.0953 95.977 20.5909L95.3528 21.1746C93.487 21.8505 92.565 23.4693 91.512 25.0387C91.5052 23.712 91.897 22.6275 92.3791 21.4061C91.1224 21.0159 89.5328 21.7895 88.3919 22.3921C86.0036 23.6533 83.5132 27.7866 82.6633 28.1261C82.2058 27.2955 82.5557 25.7235 82.5969 24.7782C82.7228 23.3281 83.2886 21.4765 84.3728 20.4602C84.7751 19.9693 85.0217 19.3091 85.2726 18.7218L84.6272 18.0335C85.1983 17.0297 85.4699 16.5235 86.2381 15.6677Z"/><path fill="#4A2D12" d="M87.5502 19.2072C88.9472 18.9794 89.9358 18.9536 91.2642 19.5361C91.9662 19.844 92.3484 20.2003 92.6222 20.8984L92.3791 21.4061C91.1224 21.0159 89.5328 21.7895 88.3919 22.3921C86.0036 23.6533 83.5132 27.7866 82.6633 28.1261C82.2058 27.2955 82.5557 25.7235 82.5969 24.7782C84.3656 23.1491 86.1547 21.1652 87.5502 19.2072Z"/><path fill="#E7C66E" d="M92.9945 18.2786C93.9363 18.5232 95.3787 18.9449 96.2971 19.1031C96.2368 19.6472 96.2182 20.0953 95.977 20.5909L95.3528 21.1746C93.782 20.6074 93.0205 19.8618 92.9945 18.2786Z"/><path fill="#43361A" d="M85.2726 18.7218C86.0642 17.349 86.4293 16.8956 87.4413 15.7074C86.9403 17.1039 86.3319 19.0221 85.5662 20.2436C85.1481 20.3436 84.8054 20.4378 84.3728 20.4602C84.7751 19.9693 85.0217 19.3091 85.2726 18.7218Z"/><defs><linearGradient id="gradient_3" gradientUnits="userSpaceOnUse" x1="227.71873" y1="19.94319" x2="225.17062" y2="13.266955"><stop offset="0" stop-color="#43250F"/><stop offset="1" stop-color="#5F3F1F"/></linearGradient></defs><path fill="url(#gradient_3)" d="M226.537 13C227.865 12.9651 229.254 12.8612 230.524 13.272L231.908 13.9656L231.571 16.9924C232.067 17.5743 232.085 17.7485 232.107 18.5165C231.77 19.3053 231.116 20.3176 231.113 20.9653C231.07 20.5157 231.013 20.021 230.798 19.6177C230.127 18.3611 228.834 17.1705 227.46 16.7572C225.614 16.2016 224.331 16.6684 222.694 17.5493C222.302 18.4683 221.939 19.6018 221.24 20.3266C221.177 20.2036 219.092 18.9355 218.767 18.7254C219.408 15.1092 223.076 13.0278 226.537 13Z"/><path fill="#E7C66E" d="M226.537 13C227.865 12.9651 229.254 12.8612 230.524 13.272L231.908 13.9656L231.571 16.9924L231.146 16.4448C230.468 16.1082 227.223 13.5613 226.537 13Z"/><path fill="#684622" d="M230.524 13.272L231.908 13.9656L231.571 16.9924L231.146 16.4448C230.987 14.7995 230.102 15.1111 230.524 13.272Z"/><path fill="#4A2D12" d="M255.409 13.225C260.449 14.5785 261.03 12.817 264.395 9.976L264.708 10.247L264.542 11.4625C263.593 15.4273 263.002 16.2045 259.16 17.773C259.631 18.016 261.626 19.0796 262.004 19.1904L263.106 21.0091C263 20.9972 262.894 20.9832 262.789 20.9672C259.232 20.4295 255.421 18.5879 253.245 15.6383C253.271 15.3328 253.418 14.9773 253.524 14.6837L254.221 14.4339L255.409 13.225Z"/><path fill="#E7C66E" d="M255.409 13.225C260.449 14.5785 261.03 12.817 264.395 9.976L264.708 10.247L264.542 11.4625C262.127 12.1487 259.933 17.6798 254.599 14.679C254.468 14.6043 254.342 14.5225 254.221 14.4339L255.409 13.225Z"/><path fill="#4A2D12" d="M212.963 14.3246C211.908 14.6258 209.168 15.6061 208.265 14.9988C208.069 14.334 208.953 12.9795 209.249 12.3401C210.925 8.72423 209.556 8.12799 208.178 4.99309C207.954 4.48526 207.974 4.44622 208.16 4.06104C208.19 4.06375 208.22 4.06679 208.25 4.07016C211.523 4.43821 212.361 9.61739 212.066 12.2539L212.241 12.4435L212.981 11.9453C213.646 11.9737 214.022 11.651 214.654 11.3307L213.823 12.5136L213.893 12.9034C214.59 12.7864 215.306 12.4366 215.806 12.3507C216.592 12.2157 219.151 12.7427 219.663 13.2971C219.305 14.0031 217.827 14.1381 216.81 14.7582C214.019 15.5191 212.292 19.157 210.313 20.5158C209.131 19.5269 213.096 15.6368 212.966 14.3469L212.963 14.3246Z"/><path fill="#3D220E" d="M166.027 8.22348C166.714 7.14572 169.006 3.75223 170.25 3.69829C170.533 5.08142 168.639 6.78039 168.063 8.33358C168.204 9.87734 169.596 14.5199 169.511 14.9179C168.437 15.3055 165.209 14.3431 163.973 14.0349C165.649 15.8552 167.698 17.8746 168.062 20.4323L167.786 20.5218C165.283 18.6408 165.107 16.6582 161.26 14.4506C160.488 14.1984 159.43 13.989 159.059 13.3074L159.231 12.8902C160.135 12.4442 161.29 12.5191 162.307 12.5143C164.066 12.5064 164.229 12.7053 166.06 12.4123C166.039 11.0254 166.002 9.60788 166.027 8.22348Z"/><path fill="#9C7E3E" d="M161.26 14.4506C160.488 14.1984 159.43 13.989 159.059 13.3074L159.231 12.8902C160.135 12.4442 161.29 12.5191 162.307 12.5143C162.819 13.6527 162.229 13.8012 161.26 14.4506Z"/><path fill="#9B7445" d="M131.182 7.83805C140.414 0.613921 155.728 5.43009 164.543 11.269C164.757 11.4107 164.7 11.7644 164.695 11.9936C163.691 12.0337 163.081 11.2108 162.208 10.7858C152.942 6.27684 139.899 1.29899 131.161 9.83737L130.295 9.08002C130.808 8.63609 131.018 8.49197 131.182 7.83805Z"/><path fill="#5D3618" d="M218.767 18.7254C219.092 18.9355 221.177 20.2036 221.24 20.3266L221.138 21.3532L221.488 21.5508C222.601 20.9267 224.116 19.7247 225.444 20.0979C226.119 20.2876 226.56 20.8826 226.968 21.4146C226.975 21.4405 226.982 21.4666 226.988 21.4928C227.166 22.2393 227.129 23.2674 226.719 23.9252C226.306 24.5888 225.682 25.0014 224.927 25.1769C223.646 25.4754 222.157 25.0718 221.061 24.389C219.83 23.6224 219.15 22.6062 218.823 21.2098C218.725 20.5162 218.763 19.451 218.767 18.7254Z"/><path fill="#9C7E3E" d="M218.767 18.7254C219.092 18.9355 221.177 20.2036 221.24 20.3266L221.138 21.3532L221.488 21.5508C222.601 20.9267 224.116 19.7247 225.444 20.0979C226.119 20.2876 226.56 20.8826 226.968 21.4146C226.151 21.6325 225.408 22.081 224.586 22.3254C222.112 23.0614 221.093 21.7803 218.823 21.2098C218.725 20.5162 218.763 19.451 218.767 18.7254Z"/><path fill="#4A2D12" d="M148.57 13.0779C150.625 12.9095 152.199 12.9824 154.241 13.3854C155.442 13.9423 156.821 14.4933 157.768 15.4031C156.11 17.1585 155.487 15.3135 154.681 16.8624C151.077 16.0427 149.482 16.4886 147.256 19.466C147.431 17.9895 147.892 18.0262 148.862 16.6162C148.858 15.8682 148.955 16.1033 148.444 15.5718C148.051 15.7791 146.949 16.3243 146.664 16.5783C146.729 15.4294 148.243 14.9244 148.57 13.0779Z"/><path fill="#B28F4E" d="M148.57 13.0779C150.625 12.9095 152.199 12.9824 154.241 13.3854C153.374 14.0092 149.091 14.568 148.444 15.5718C148.051 15.7791 146.949 16.3243 146.664 16.5783C146.729 15.4294 148.243 14.9244 148.57 13.0779Z"/><path fill="#4A2D12" d="M158.325 23.2023C157.566 24.2193 156.309 25.0019 155.074 25.2935C154.235 25.4916 153.374 25.3163 152.647 24.8642C151.918 24.4157 151.399 23.6933 151.208 22.8589C151.073 22.2597 151.132 21.5126 151.47 20.9858C151.746 20.5576 152.223 20.2785 152.714 20.1753C154.333 19.8354 155.509 20.7727 156.782 21.6037L157.207 21.4667C157.452 21.5894 157.747 21.6573 157.837 21.9242C157.984 22.3642 157.973 22.7712 157.959 23.2299L158.325 23.2023Z"/><path fill="#332013" d="M157.207 21.4667C157.452 21.5894 157.747 21.6573 157.837 21.9242C157.984 22.3642 157.973 22.7712 157.959 23.2299C157.762 23.3706 157.45 23.454 157.223 23.545C156.606 23.0353 157.305 22.2894 156.782 21.6037L157.207 21.4667Z"/><path fill="#B28F4E" d="M70.1844 20.2474C70.8093 20.5713 71.2196 20.6403 71.919 20.5728C72.0883 21.543 72.2674 22.5041 72.3116 23.4897C73.2069 22.7128 74.4624 21.3213 75.7299 21.4121C76.2105 21.4465 76.7115 21.8166 77.1026 22.0809C77.5435 22.6508 77.9834 23.2793 77.8949 24.045C77.828 24.6232 77.5963 25.0358 77.1386 25.3917C76.0312 26.2528 74.638 26.1572 73.3399 25.988L73.1705 25.9656C72.7492 25.7142 72.3682 25.4287 72.0131 25.0908C70.5673 23.7151 70.231 22.1842 70.1844 20.2474Z"/><path fill="#090502" d="M77.1026 22.0809C77.5435 22.6508 77.9834 23.2793 77.8949 24.045C77.828 24.6232 77.5963 25.0358 77.1386 25.3917C76.0312 26.2528 74.638 26.1572 73.3399 25.988L73.1705 25.9656C73.5794 23.6719 75.7103 23.7081 77.1026 22.0809Z"/><path fill="#946E3A" d="M212.981 11.9453C213.015 11.8581 213.172 11.4251 213.219 11.3945C220.046 6.93677 228.835 3.88583 236.966 4.22847L237.725 5.34856C230.485 4.73037 226.941 6.20093 220.065 8.98246C218.64 9.55865 216.011 10.921 214.654 11.3307C214.022 11.651 213.646 11.9737 212.981 11.9453Z"/><path fill="#3D220E" d="M281.693 22.0464C282.78 21.554 283.935 21.1936 285.137 21.3372C285.348 21.5046 285.563 21.6681 285.781 21.8274L286.17 21.7092C286.521 23.5582 286.974 26.9927 285.876 28.6494L285.566 28.6993C283.043 24.8998 284.454 25.4388 279.976 22.6506C280.045 22.5395 280.122 22.4202 280.219 22.3317C280.703 21.8872 281.081 22.0178 281.693 22.0464Z"/><path fill="#332013" d="M307.268 23.6393C307.077 24.0425 306.861 24.4481 306.563 24.7831C305.852 25.5821 304.91 26.2568 303.809 26.3159C302.925 26.3634 301.972 26.0051 301.318 25.4125C300.812 24.9546 300.31 24.2355 300.281 23.5356C300.257 22.9652 300.416 22.5525 300.808 22.1371C302.525 20.318 304.323 22.8655 305.967 22.8129C306.386 23.177 306.75 23.4354 307.268 23.6393Z"/><path fill="#332013" d="M2.45108 22.0656C1.94731 21.1968 1.96822 20.1199 2.50534 19.2713C3.04246 18.4227 4.00675 17.943 5.00758 18.0265C6.00841 18.11 6.87988 18.7429 7.26896 19.6688C7.81994 20.9799 7.25766 22.4936 5.98429 23.1271C4.71093 23.7606 3.16448 23.296 2.45108 22.0656Z"/><path fill="#9C7E3E" d="M2.45108 22.0656C1.94731 21.1968 1.96822 20.1199 2.50534 19.2713C3.04246 18.4227 4.00675 17.943 5.00758 18.0265C6.00841 18.11 6.87988 18.7429 7.26896 19.6688C5.62288 19.9045 3.6487 20.8921 2.45108 22.0656Z"/><path fill="#B28F4E" d="M270.294 19.2107L270.957 19.2126L271.609 19.9724C271.242 20.328 270.973 20.6754 270.711 21.1134L269.524 21.1472C269.188 21.5757 269.287 21.7214 269.341 22.2458C269.197 22.4399 268.923 22.6144 268.734 22.7693C268.016 22.6935 267.765 22.4006 267.207 21.9667L265.597 22.2125C264.789 21.7422 263.968 21.3681 263.106 21.0091L262.004 19.1904C264.386 19.5012 266.659 19.7759 269.033 19.3227C269.458 19.2414 269.86 19.1991 270.294 19.2107Z"/><path fill="#4A2D12" d="M270.294 19.2107L270.957 19.2126L271.609 19.9724C271.242 20.328 270.973 20.6754 270.711 21.1134L269.524 21.1472C269.188 21.5757 269.287 21.7214 269.341 22.2458C269.197 22.4399 268.923 22.6144 268.734 22.7693C268.016 22.6935 267.765 22.4006 267.207 21.9667C268.273 20.7823 269.473 20.6836 270.294 19.2107Z"/><path fill="#3D220E" d="M157.768 15.4031C158.954 16.9842 159.714 18.8432 159.423 20.8558C159.304 21.7314 158.922 22.5501 158.325 23.2023L157.959 23.2299C157.973 22.7712 157.984 22.3642 157.837 21.9242C157.747 21.6573 157.452 21.5894 157.207 21.4667C156.954 19.0788 156.293 18.6813 154.681 16.8624C155.487 15.3135 156.11 17.1585 157.768 15.4031Z"/><path fill="#3D220E" d="M267.207 21.9667C267.765 22.4006 268.016 22.6935 268.734 22.7693C268.923 22.6144 269.197 22.4399 269.341 22.2458C269.67 22.5482 269.788 23.0944 269.886 23.5191C270.474 26.0546 269.448 28.2019 268.143 30.296C268.118 26.776 267.897 24.9336 265.597 22.2125L267.207 21.9667Z"/><path fill="#B28F4E" d="M364.264 19.2274C368.406 19.2224 368.452 15.3544 370.539 14.6993L370.881 14.8885C370.859 15.6737 369.579 17.5154 369.172 19.2474C367.716 19.829 366.177 20.5453 364.602 20.5743C364.567 20.1382 364.381 19.6524 364.264 19.2274Z"/><path fill="#4A2D12" d="M310.458 21.3311L310.584 21.8446C311.088 21.4761 311.672 20.9666 312.253 20.7388C311.923 21.7533 311.463 22.8498 311.588 23.9305C310.771 25.1805 309.467 26.3579 308.016 26.7809L307.834 26.4816C308.353 24.6328 309.891 23.2983 310.458 21.3311Z"/><path fill="#B28F4E" d="M64.1863 19.1905C67.064 18.5137 67.0677 15.0518 69.5056 14.565L69.7574 14.7847C69.7016 15.6282 68.5457 17.0194 67.9393 18.2531C67.0788 18.9752 65.8009 20.2259 64.7455 20.3993L64.2955 20.1881C64.1978 19.8184 64.1061 19.5713 64.1863 19.1905Z"/><path fill="#3D220E" d="M114.966 19.3687C116.482 19.1721 117.429 18.803 118.691 17.9684L119.163 18.4148C118.97 19.1771 118.079 19.8045 117.462 20.3391C115.974 21.0441 114.343 21.3502 112.862 22.0822C112.945 21.4592 112.963 20.9755 112.799 20.3651C113.268 19.8307 114.339 20.0451 114.966 19.3687Z"/><path fill="#946E3A" d="M241.863 5.25898C243.719 5.94278 245.538 6.65811 247.184 7.78428C246.764 7.95422 245.96 8.30639 245.551 8.38512C244.632 7.57451 241.599 6.40747 240.44 5.97355L240.673 5.56022L241.863 5.25898Z"/><path fill="#684622" d="M70.8004 18.7576C71.4389 18.2147 72.085 17.6806 72.7383 17.1556L74.3763 17.132C73.2094 18.3227 72.76 19.1597 71.919 20.5728C71.2196 20.6403 70.8093 20.5713 70.1844 20.2474C70.364 19.7347 70.5817 19.2538 70.8004 18.7576Z"/><path fill="#9B7445" d="M236.966 4.22847C238.866 4.52426 240.017 4.73976 241.863 5.25898L240.673 5.56022L240.44 5.97355C239.822 5.94027 238.392 5.52469 237.725 5.34856L236.966 4.22847Z"/><path fill="#4A2D12" d="M183.342 0L185.077 0C178.095 5.94264 174.623 11.426 180.021 20.353C182.736 23.3373 186.539 24.1979 189.099 26.8796L189.212 27.1939C189.819 27.4505 190.216 27.7796 190.471 28.4199C190.518 28.5364 190.547 28.6625 190.563 28.7865C190.064 29.3691 189.86 29.7022 189.125 29.9704C188.412 29.8597 187.974 29.2574 187.449 28.8175C184.055 25.9745 178.717 25.8742 174.523 26.2416L174.515 26.0837C173.492 25.6711 172.486 25.0171 171.624 24.3312L171.94 23.6514C173.328 23.1848 175.598 22.8735 177.119 22.6217C175.015 20.3814 174.168 19.7205 172.946 16.8385C172.538 15.4946 172.348 14.5882 172.091 13.2279C172.133 12.0615 172.267 11.5179 172.54 10.3774C173.146 8.55948 173.205 8.41308 174.187 6.74936C175.005 4.4914 179.348 1.78994 181.696 1.2977C182.508 0.912992 182.735 0.638177 183.342 0Z"/><path fill="#684622" d="M174.187 6.74936C175.005 4.4914 179.348 1.78994 181.696 1.2977C179.581 3.36267 177.69 5.52941 176.321 8.1975C176.044 8.73675 175.848 9.14913 175.401 9.56723C174.986 10.4897 174.883 10.844 174.66 11.8309C173.854 10.8565 173.712 10.6448 172.54 10.3774C173.146 8.55948 173.205 8.41308 174.187 6.74936Z"/><path fill="#EADBAB" d="M174.187 6.74936C174.742 7.16415 175.281 8.90735 175.401 9.56723C174.986 10.4897 174.883 10.844 174.66 11.8309C173.854 10.8565 173.712 10.6448 172.54 10.3774C173.146 8.55948 173.205 8.41308 174.187 6.74936Z"/><path fill="#E7C66E" d="M180.021 20.353C182.736 23.3373 186.539 24.1979 189.099 26.8796L189.212 27.1939C186.625 27.2444 183.15 23.2419 180.55 22.9993C179.163 22.8698 177.321 23.5364 175.899 23.6973L175.746 23.3814C176.279 22.7787 177.069 23.2083 177.708 22.7912C178.56 22.2352 178.151 21.3531 180.021 20.353Z"/><path fill="#E7C66E" d="M172.54 10.3774C173.712 10.6448 173.854 10.8565 174.66 11.8309C174.721 12.2334 174.929 13.3942 174.941 13.7371C174.87 15.5553 174.644 15.9489 172.946 16.8385C172.538 15.4946 172.348 14.5882 172.091 13.2279C172.133 12.0615 172.267 11.5179 172.54 10.3774Z"/><path fill="#5D3618" d="M172.54 10.3774C173.712 10.6448 173.854 10.8565 174.66 11.8309C174.721 12.2334 174.929 13.3942 174.941 13.7371C173.722 13.3131 173.385 13.278 172.091 13.2279C172.133 12.0615 172.267 11.5179 172.54 10.3774Z"/><path fill="#3D220E" d="M197.835 20.6399C198.76 20.4064 199.979 19.525 200.784 18.9705L200.835 20.3275C201.148 20.7825 201.532 21.2556 201.668 21.7973L201.588 22.8709L201.716 22.9475C203.257 22.622 205.628 23.0882 207.016 23.8308C208.786 24.3011 210.818 25.4307 211.764 27.0591C212.213 27.8333 212.447 28.9895 212.219 29.8678C212.174 30.0431 212.086 30.2118 211.978 30.357L211.698 30.3771C208.334 27.3188 204.43 25.8381 199.858 26.0545C198.384 26.1243 196.878 26.24 195.439 26.5801C193.758 27.1092 191.947 27.6487 190.563 28.7865C190.547 28.6625 190.518 28.5364 190.471 28.4199C190.216 27.7796 189.819 27.4505 189.212 27.1939L189.099 26.8796L189.791 26.1449C191.365 24.6407 193.806 23.6166 195.728 22.5873C196.255 21.8873 197.175 21.2352 197.835 20.6399Z"/><path fill="#684622" d="M195.728 22.5873C196.049 23.3751 195.508 23.9747 195.774 24.6687C195.117 25.0972 194.457 25.5214 193.795 25.9412C194.337 26.1875 194.864 26.4171 195.439 26.5801C193.758 27.1092 191.947 27.6487 190.563 28.7865C190.547 28.6625 190.518 28.5364 190.471 28.4199C190.216 27.7796 189.819 27.4505 189.212 27.1939L189.099 26.8796L189.791 26.1449C191.365 24.6407 193.806 23.6166 195.728 22.5873Z"/><path fill="#5D3618" d="M189.791 26.1449C191.083 27.1565 192.298 26.1222 193.795 25.9412C194.337 26.1875 194.864 26.4171 195.439 26.5801C193.758 27.1092 191.947 27.6487 190.563 28.7865C190.547 28.6625 190.518 28.5364 190.471 28.4199C190.216 27.7796 189.819 27.4505 189.212 27.1939L189.099 26.8796L189.791 26.1449Z"/><path fill="#946E3A" d="M197.835 20.6399C198.76 20.4064 199.979 19.525 200.784 18.9705L200.835 20.3275C201.148 20.7825 201.532 21.2556 201.668 21.7973L201.588 22.8709C201.541 22.8928 201.494 22.9133 201.446 22.9323C200.734 23.2151 200.418 23.1108 199.749 22.8278C198.422 23.0148 197.077 24.1722 195.774 24.6687C195.508 23.9747 196.049 23.3751 195.728 22.5873C196.255 21.8873 197.175 21.2352 197.835 20.6399Z"/><path fill="#43361A" d="M200.835 20.3275C201.148 20.7825 201.532 21.2556 201.668 21.7973L201.588 22.8709C201.541 22.8928 201.494 22.9133 201.446 22.9323C200.734 23.2151 200.418 23.1108 199.749 22.8278L200.835 20.3275Z"/><path fill="#946E3A" d="M201.716 22.9475C203.257 22.622 205.628 23.0882 207.016 23.8308C206.745 24.1769 206.434 24.5909 206.028 24.7824C205.46 25.0503 204.46 24.9061 203.891 24.7024C202.971 24.3732 202.141 23.8497 201.716 22.9475Z"/><path fill="#4A2D12" d="M193.472 0L194.599 0C195.884 1.05128 196.29 0.962715 197.668 1.6757C200.058 2.91247 201.59 3.95502 203.492 5.86582C203.833 6.39442 204.211 6.96632 204.503 7.49993C207.06 12.1737 206.092 18.2617 201.928 21.6781C201.885 21.7138 201.726 21.7774 201.668 21.7973C201.532 21.2556 201.148 20.7825 200.835 20.3275L200.784 18.9705C200.863 18.5796 201.695 16.5388 201.888 16.0451C201.585 15.6348 200.958 15.2387 200.526 14.9338C200.532 14.3593 200.704 13.006 200.765 12.3758C200.765 12.3401 200.764 12.3043 200.764 12.2685C200.665 5.90208 197.36 3.7677 193.472 0Z"/><path fill="#E7C66E" d="M193.472 0L194.599 0C195.884 1.05128 196.29 0.962715 197.668 1.6757C200.058 2.91247 201.59 3.95502 203.492 5.86582C203.311 6.75701 203.246 6.93938 202.716 7.69323C201.812 9.77013 203.538 11.3888 201.144 12.5564L200.765 12.3758C200.765 12.3401 200.764 12.3043 200.764 12.2685C200.665 5.90208 197.36 3.7677 193.472 0Z"/><path fill="#684622" d="M202.716 7.69323C202.887 9.4815 202.967 10.2633 203.453 12.0042L203.461 11.7633C203.695 13.7218 203.449 13.9603 202.443 15.7029L201.888 16.0451C201.585 15.6348 200.958 15.2387 200.526 14.9338C200.532 14.3593 200.704 13.006 200.765 12.3758L201.144 12.5564C203.538 11.3888 201.812 9.77013 202.716 7.69323Z"/><path fill="#5D3618" d="M174.523 26.2416C172.506 26.5871 169.931 27.2784 168.315 28.5563C167.758 28.9967 166.902 30.4656 166.343 30.6474C166.277 30.6688 166.213 30.6887 166.145 30.7015L165.873 30.4028C165.601 29.2877 165.987 27.8329 166.57 26.8662C167.699 24.9904 169.921 24.1559 171.94 23.6514L171.624 24.3312C172.486 25.0171 173.492 25.6711 174.515 26.0837L174.523 26.2416Z"/><path fill="#3D220E" d="M370.819 21.9691C370.781 21.64 370.753 21.3099 370.736 20.979C370.695 20.1049 371.032 19.5274 371.608 18.8985C372.076 18.3886 372.628 18.1321 373.324 18.1055C374.323 18.0674 374.904 18.5451 375.594 19.1778L376 19.0881L376 21.9084C375.14 22.5688 374.296 23.2862 373.147 23.2657C372.194 23.2486 371.441 22.6232 370.819 21.9691Z"/><path fill="#B28F4E" d="M370.819 21.9691C370.781 21.64 370.753 21.3099 370.736 20.979C370.695 20.1049 371.032 19.5274 371.608 18.8985C372.076 18.3886 372.628 18.1321 373.324 18.1055C374.323 18.0674 374.904 18.5451 375.594 19.1778C373.967 20.057 372.486 21.1691 370.819 21.9691Z"/><path fill="#EADBAB" d="M200.526 14.9338C200.958 15.2387 201.585 15.6348 201.888 16.0451C201.695 16.5388 200.863 18.5796 200.784 18.9705C199.979 19.525 198.76 20.4064 197.835 20.6399C199.059 18.5173 199.83 17.283 200.526 14.9338Z"/></svg>